<?xml version="1.0" encoding="UTF-8" standalone="no"?>
<!DOCTYPE svg PUBLIC "-//W3C//DTD SVG 1.1//EN"
 "http://www.w3.org/Graphics/SVG/1.1/DTD/svg11.dtd">
<!-- Generated by graphviz version 2.40.1 (20161225.0304)
 -->
<!-- Title: state transitions Pages: 1 -->
<svg width="582pt" height="753pt"
 viewBox="0.00 0.00 582.36 753.00" xmlns="http://www.w3.org/2000/svg" xmlns:xlink="http://www.w3.org/1999/xlink">
<g id="graph0" class="graph" transform="scale(1 1) rotate(0) translate(4 749)">
<title>state transitions</title>
<polygon fill="#ffffff" stroke="transparent" points="-4,4 -4,-749 578.355,-749 578.355,4 -4,4"/>
<g id="clust1" class="cluster">
<title>cluster_MasterStateMachine</title>
<path fill="none" stroke="#000000" stroke-width="2" d="M354,-460C354,-460 494,-460 494,-460 500,-460 506,-466 506,-472 506,-472 506,-530 506,-530 506,-536 500,-542 494,-542 494,-542 354,-542 354,-542 348,-542 342,-536 342,-530 342,-530 342,-472 342,-472 342,-466 348,-460 354,-460"/>
<text text-anchor="start" x="368.9896" y="-523.2" font-family="Helvetica,sans-Serif" font-size="12.00" fill="#000000">MasterStateMachine</text>
</g>
<g id="clust2" class="cluster">
<title>cluster_GlobalStateMachine</title>
<path fill="none" stroke="#000000" stroke-width="2" d="M20,-244C20,-244 195,-244 195,-244 201,-244 207,-250 207,-256 207,-256 207,-725 207,-725 207,-731 201,-737 195,-737 195,-737 20,-737 20,-737 14,-737 8,-731 8,-725 8,-725 8,-256 8,-256 8,-250 14,-244 20,-244"/>
<text text-anchor="start" x="53.4862" y="-718.2" font-family="Helvetica,sans-Serif" font-size="12.00" fill="#000000">GlobalStateMachine</text>
</g>
<g id="clust3" class="cluster">
<title>cluster_VisualServoStateMachine</title>
<path fill="none" stroke="#000000" stroke-width="2" d="M227,-8C227,-8 399,-8 399,-8 405,-8 411,-14 411,-20 411,-20 411,-367 411,-367 411,-373 405,-379 399,-379 399,-379 227,-379 227,-379 221,-379 215,-373 215,-367 215,-367 215,-20 215,-20 215,-14 221,-8 227,-8"/>
<text text-anchor="start" x="244.818" y="-360.2" font-family="Helvetica,sans-Serif" font-size="12.00" fill="#000000">VisualServoStateMachine</text>
</g>
<!-- initial -->
<g id="node1" class="node">
<title>initial</title>
<ellipse fill="#000000" stroke="#000000" stroke-width="2" cx="393" cy="-640" rx="5.5" ry="5.5"/>
</g>
<!-- IDLE -->
<g id="node2" class="node">
<title>IDLE</title>
<polygon fill="transparent" stroke="transparent" stroke-width="2" points="421,-606 365,-606 365,-570 421,-570 421,-606"/>
<text text-anchor="start" x="379.6644" y="-584.2" font-family="Helvetica,sans-Serif" font-size="12.00" fill="#000000">IDLE</text>
<path fill="none" stroke="#000000" stroke-width="2" d="M377.3333,-571C377.3333,-571 408.6667,-571 408.6667,-571 414.3333,-571 420,-576.6667 420,-582.3333 420,-582.3333 420,-593.6667 420,-593.6667 420,-599.3333 414.3333,-605 408.6667,-605 408.6667,-605 377.3333,-605 377.3333,-605 371.6667,-605 366,-599.3333 366,-593.6667 366,-593.6667 366,-582.3333 366,-582.3333 366,-576.6667 371.6667,-571 377.3333,-571"/>
</g>
<!-- initial&#45;&gt;IDLE -->
<g id="edge1" class="edge">
<title>initial&#45;&gt;IDLE</title>
<path fill="none" stroke="#000000" d="M393,-634.4351C393,-629.9286 393,-623.2096 393,-616.2731"/>
<polygon fill="#000000" stroke="#000000" points="396.5001,-616.187 393,-606.1871 389.5001,-616.1871 396.5001,-616.187"/>
<text text-anchor="middle" x="394.3895" y="-617" font-family="Helvetica,sans-Serif" font-size="10.00" fill="#000000"> </text>
</g>
<!-- GLOBAL_SEARCH -->
<g id="node4" class="node">
<title>GLOBAL_SEARCH</title>
<polygon fill="transparent" stroke="transparent" stroke-width="2" points="498,-504 372,-504 372,-468 498,-468 498,-504"/>
<text text-anchor="start" x="382.6578" y="-482.2" font-family="Helvetica,sans-Serif" font-size="12.00" fill="#000000">GLOBAL_SEARCH</text>
<path fill="none" stroke="#000000" stroke-width="2" d="M384.3333,-469C384.3333,-469 485.6667,-469 485.6667,-469 491.3333,-469 497,-474.6667 497,-480.3333 497,-480.3333 497,-491.6667 497,-491.6667 497,-497.3333 491.3333,-503 485.6667,-503 485.6667,-503 384.3333,-503 384.3333,-503 378.6667,-503 373,-497.3333 373,-491.6667 373,-491.6667 373,-480.3333 373,-480.3333 373,-474.6667 378.6667,-469 384.3333,-469"/>
</g>
<!-- IDLE&#45;&gt;GLOBAL_SEARCH -->
<g id="edge2" class="edge">
<title>IDLE&#45;&gt;GLOBAL_SEARCH</title>
<path fill="none" stroke="#000000" d="M421.2185,-574.0344C425.5081,-570.6815 429.3728,-566.6844 432,-562 440.0043,-547.7278 440.9623,-529.4645 439.8202,-514.4183"/>
<polygon fill="#000000" stroke="#000000" points="443.2614,-513.691 438.6881,-504.1341 436.3034,-514.457 443.2614,-513.691"/>
<text text-anchor="start" x="436" y="-553" font-family="Helvetica,sans-Serif" font-size="10.00" fill="#000000">MasterPickup START &#160;&#160;</text>
</g>
<!-- MasterStateMachine -->
<!-- MasterStateMachine&#45;&gt;IDLE -->
<g id="edge3" class="edge">
<title>MasterStateMachine&#45;&gt;IDLE</title>
<path fill="none" stroke="#000000" d="M342.0038,-494.6798C329.3107,-509.5472 307.455,-540.3714 322.529,-562 326.6789,-567.9545 340.5435,-573.6464 354.8899,-578.1784"/>
<polygon fill="#000000" stroke="#000000" points="354.2028,-581.6254 364.7856,-581.1195 356.1972,-574.9155 354.2028,-581.6254"/>
<text text-anchor="start" x="322" y="-553" font-family="Helvetica,sans-Serif" font-size="10.00" fill="#000000">Pickup STOP request &#160;&#160;</text>
</g>
<!-- APPROACH -->
<g id="node6" class="node">
<title>APPROACH</title>
<polygon fill="transparent" stroke="transparent" stroke-width="2" points="146.5,-699 57.5,-699 57.5,-663 146.5,-663 146.5,-699"/>
<text text-anchor="start" x="68.8328" y="-677.2" font-family="Helvetica,sans-Serif" font-size="12.00" fill="#000000">APPROACH</text>
<path fill="none" stroke="#000000" stroke-width="2" d="M69.8333,-664C69.8333,-664 134.1667,-664 134.1667,-664 139.8333,-664 145.5,-669.6667 145.5,-675.3333 145.5,-675.3333 145.5,-686.6667 145.5,-686.6667 145.5,-692.3333 139.8333,-698 134.1667,-698 134.1667,-698 69.8333,-698 69.8333,-698 64.1667,-698 58.5,-692.3333 58.5,-686.6667 58.5,-686.6667 58.5,-675.3333 58.5,-675.3333 58.5,-669.6667 64.1667,-664 69.8333,-664"/>
</g>
<!-- GLOBAL_SEARCH&#45;&gt;APPROACH -->
<g id="edge5" class="edge">
<title>GLOBAL_SEARCH&#45;&gt;APPROACH</title>
<path fill="none" stroke="#000000" d="M498.2628,-503.5093C530.3939,-515.9937 559.8237,-535.3174 545,-562 461.8002,-711.7596 342.132,-635.7145 173,-663 167.6645,-663.8608 162.1438,-664.9318 156.6463,-666.1196"/>
<polygon fill="#000000" stroke="#000000" points="155.7907,-662.7248 146.821,-668.3636 157.3493,-669.5491 155.7907,-662.7248"/>
<text text-anchor="start" x="506" y="-617" font-family="Helvetica,sans-Serif" font-size="10.00" fill="#000000">Target Found &#160;&#160;</text>
</g>
<!-- GlobalStateMachine -->
<!-- LOCAL_SEARCH -->
<g id="node7" class="node">
<title>LOCAL_SEARCH</title>
<polygon fill="transparent" stroke="transparent" stroke-width="2" points="199,-606 81,-606 81,-570 199,-570 199,-606"/>
<text text-anchor="start" x="91.9952" y="-584.2" font-family="Helvetica,sans-Serif" font-size="12.00" fill="#000000">LOCAL_SEARCH</text>
<path fill="none" stroke="#000000" stroke-width="2" d="M93.3333,-571C93.3333,-571 186.6667,-571 186.6667,-571 192.3333,-571 198,-576.6667 198,-582.3333 198,-582.3333 198,-593.6667 198,-593.6667 198,-599.3333 192.3333,-605 186.6667,-605 186.6667,-605 93.3333,-605 93.3333,-605 87.6667,-605 82,-599.3333 82,-593.6667 82,-593.6667 82,-582.3333 82,-582.3333 82,-576.6667 87.6667,-571 93.3333,-571"/>
</g>
<!-- APPROACH&#45;&gt;LOCAL_SEARCH -->
<g id="edge9" class="edge">
<title>APPROACH&#45;&gt;LOCAL_SEARCH</title>
<path fill="none" stroke="#000000" d="M109.5076,-662.6262C115.0079,-649.1648 122.5665,-630.6661 128.782,-615.4546"/>
<polygon fill="#000000" stroke="#000000" points="132.0948,-616.6001 132.6373,-606.0192 125.6148,-613.9524 132.0948,-616.6001"/>
<text text-anchor="start" x="121" y="-637" font-family="Helvetica,sans-Serif" font-size="10.00" fill="#000000">Destination reached &#160;&#160;</text>
</g>
<!-- LOCAL_SEARCH&#45;&gt;GLOBAL_SEARCH -->
<g id="edge4" class="edge">
<title>LOCAL_SEARCH&#45;&gt;GLOBAL_SEARCH</title>
<path fill="none" stroke="#000000" d="M182.0396,-569.9451C202.7596,-561.3511 225.5821,-552.4222 236.426,-550 290.5719,-537.9054 308.9979,-561.3349 361,-542 379.0082,-535.3044 396.2964,-522.6953 409.6278,-511.1349"/>
<polygon fill="#000000" stroke="#000000" points="412.3071,-513.4316 417.3882,-504.1346 407.6185,-508.2338 412.3071,-513.4316"/>
<text text-anchor="start" x="236" y="-553" font-family="Helvetica,sans-Serif" font-size="10.00" fill="#000000">Search timeout &#160;&#160;</text>
</g>
<!-- PICKUP -->
<g id="node8" class="node">
<title>PICKUP</title>
<polygon fill="transparent" stroke="transparent" stroke-width="2" points="199,-443 133,-443 133,-407 199,-407 199,-443"/>
<text text-anchor="start" x="143.6656" y="-421.2" font-family="Helvetica,sans-Serif" font-size="12.00" fill="#000000">PICKUP</text>
<path fill="none" stroke="#000000" stroke-width="2" d="M145.3333,-408C145.3333,-408 186.6667,-408 186.6667,-408 192.3333,-408 198,-413.6667 198,-419.3333 198,-419.3333 198,-430.6667 198,-430.6667 198,-436.3333 192.3333,-442 186.6667,-442 186.6667,-442 145.3333,-442 145.3333,-442 139.6667,-442 134,-436.3333 134,-430.6667 134,-430.6667 134,-419.3333 134,-419.3333 134,-413.6667 139.6667,-408 145.3333,-408"/>
</g>
<!-- LOCAL_SEARCH&#45;&gt;PICKUP -->
<g id="edge10" class="edge">
<title>LOCAL_SEARCH&#45;&gt;PICKUP</title>
<path fill="none" stroke="#000000" d="M147.9742,-569.9936C151.3276,-561.6407 154.9256,-551.4817 157,-542 163.5321,-512.1427 165.4991,-477.0985 166.0082,-453.2008"/>
<polygon fill="#000000" stroke="#000000" points="169.5097,-453.1119 166.1507,-443.0637 162.5104,-453.0135 169.5097,-453.1119"/>
<text text-anchor="middle" x="166.3895" y="-483" font-family="Helvetica,sans-Serif" font-size="10.00" fill="#000000"> </text>
</g>
<!-- DROPOFF -->
<g id="node9" class="node">
<title>DROPOFF</title>
<polygon fill="transparent" stroke="transparent" stroke-width="2" points="199,-288 119,-288 119,-252 199,-252 199,-288"/>
<text text-anchor="start" x="129.6702" y="-266.2" font-family="Helvetica,sans-Serif" font-size="12.00" fill="#000000">DROPOFF</text>
<path fill="none" stroke="#000000" stroke-width="2" d="M131.3333,-253C131.3333,-253 186.6667,-253 186.6667,-253 192.3333,-253 198,-258.6667 198,-264.3333 198,-264.3333 198,-275.6667 198,-275.6667 198,-281.3333 192.3333,-287 186.6667,-287 186.6667,-287 131.3333,-287 131.3333,-287 125.6667,-287 120,-281.3333 120,-275.6667 120,-275.6667 120,-264.3333 120,-264.3333 120,-258.6667 125.6667,-253 131.3333,-253"/>
</g>
<!-- PICKUP&#45;&gt;DROPOFF -->
<g id="edge11" class="edge">
<title>PICKUP&#45;&gt;DROPOFF</title>
<path fill="none" stroke="#000000" d="M165.1833,-406.9162C163.9832,-380.3422 161.7312,-330.4757 160.3015,-298.819"/>
<polygon fill="#000000" stroke="#000000" points="163.7809,-298.281 159.8332,-288.4491 156.788,-298.5968 163.7809,-298.281"/>
<text text-anchor="middle" x="164.3895" y="-320" font-family="Helvetica,sans-Serif" font-size="10.00" fill="#000000"> </text>
</g>
<!-- BRICK_ALIGNMENT -->
<g id="node11" class="node">
<title>BRICK_ALIGNMENT</title>
<polygon fill="transparent" stroke="transparent" stroke-width="2" points="369.5,-341 234.5,-341 234.5,-305 369.5,-305 369.5,-341"/>
<text text-anchor="start" x="245.833" y="-319.2" font-family="Helvetica,sans-Serif" font-size="12.00" fill="#000000">BRICK_ALIGNMENT</text>
<path fill="none" stroke="#000000" stroke-width="2" d="M246.8333,-306C246.8333,-306 357.1667,-306 357.1667,-306 362.8333,-306 368.5,-311.6667 368.5,-317.3333 368.5,-317.3333 368.5,-328.6667 368.5,-328.6667 368.5,-334.3333 362.8333,-340 357.1667,-340 357.1667,-340 246.8333,-340 246.8333,-340 241.1667,-340 235.5,-334.3333 235.5,-328.6667 235.5,-328.6667 235.5,-317.3333 235.5,-317.3333 235.5,-311.6667 241.1667,-306 246.8333,-306"/>
</g>
<!-- PICKUP&#45;&gt;BRICK_ALIGNMENT -->
<g id="edge6" class="edge">
<title>PICKUP&#45;&gt;BRICK_ALIGNMENT</title>
<path fill="none" stroke="#000000" d="M190.001,-406.9992C212.102,-390.4235 245.0701,-365.6974 269.5202,-347.3599"/>
<polygon fill="#000000" stroke="#000000" points="271.8815,-349.9639 277.7815,-341.1639 267.6814,-344.3639 271.8815,-349.9639"/>
<text text-anchor="middle" x="214.3895" y="-390" font-family="Helvetica,sans-Serif" font-size="10.00" fill="#000000"> </text>
</g>
<!-- DROPOFF&#45;&gt;APPROACH -->
<g id="edge8" class="edge">
<title>DROPOFF&#45;&gt;APPROACH</title>
<path fill="none" stroke="#000000" d="M118.7088,-279.5711C83.5098,-289.1418 38,-304.997 38,-323 38,-640 38,-640 38,-640 38,-648.8204 42.3634,-655.83 48.8115,-661.3729"/>
<polygon fill="#000000" stroke="#000000" points="46.9982,-664.3754 57.2021,-667.2268 51.0035,-658.6345 46.9982,-664.3754"/>
<text text-anchor="start" x="38" y="-483" font-family="Helvetica,sans-Serif" font-size="10.00" fill="#000000">Approaching new target &#160;&#160;</text>
</g>
<!-- VisualServoStateMachine -->
<!-- DESCENT -->
<g id="node12" class="node">
<title>DESCENT</title>
<polygon fill="transparent" stroke="transparent" stroke-width="2" points="347.5,-227 268.5,-227 268.5,-191 347.5,-191 347.5,-227"/>
<text text-anchor="start" x="279.8362" y="-205.2" font-family="Helvetica,sans-Serif" font-size="12.00" fill="#000000">DESCENT</text>
<path fill="none" stroke="#000000" stroke-width="2" d="M280.8333,-192C280.8333,-192 335.1667,-192 335.1667,-192 340.8333,-192 346.5,-197.6667 346.5,-203.3333 346.5,-203.3333 346.5,-214.6667 346.5,-214.6667 346.5,-220.3333 340.8333,-226 335.1667,-226 335.1667,-226 280.8333,-226 280.8333,-226 275.1667,-226 269.5,-220.3333 269.5,-214.6667 269.5,-214.6667 269.5,-203.3333 269.5,-203.3333 269.5,-197.6667 275.1667,-192 280.8333,-192"/>
</g>
<!-- BRICK_ALIGNMENT&#45;&gt;DESCENT -->
<g id="edge12" class="edge">
<title>BRICK_ALIGNMENT&#45;&gt;DESCENT</title>
<path fill="none" stroke="#000000" d="M302.9507,-304.9364C303.9062,-286.7827 305.3928,-258.536 306.506,-237.3859"/>
<polygon fill="#000000" stroke="#000000" points="310.0033,-237.5268 307.0339,-227.3566 303.013,-237.1588 310.0033,-237.5268"/>
<text text-anchor="middle" x="307.3895" y="-267" font-family="Helvetica,sans-Serif" font-size="10.00" fill="#000000"> </text>
</g>
<!-- TOUCHDOWN_ALIGNMENT -->
<g id="node13" class="node">
<title>TOUCHDOWN_ALIGNMENT</title>
<polygon fill="transparent" stroke="transparent" stroke-width="2" points="402.5,-134 223.5,-134 223.5,-98 402.5,-98 402.5,-134"/>
<text text-anchor="start" x="234.8454" y="-112.2" font-family="Helvetica,sans-Serif" font-size="12.00" fill="#000000">TOUCHDOWN_ALIGNMENT</text>
<path fill="none" stroke="#000000" stroke-width="2" d="M235.8333,-99C235.8333,-99 390.1667,-99 390.1667,-99 395.8333,-99 401.5,-104.6667 401.5,-110.3333 401.5,-110.3333 401.5,-121.6667 401.5,-121.6667 401.5,-127.3333 395.8333,-133 390.1667,-133 390.1667,-133 235.8333,-133 235.8333,-133 230.1667,-133 224.5,-127.3333 224.5,-121.6667 224.5,-121.6667 224.5,-110.3333 224.5,-110.3333 224.5,-104.6667 230.1667,-99 235.8333,-99"/>
</g>
<!-- DESCENT&#45;&gt;TOUCHDOWN_ALIGNMENT -->
<g id="edge13" class="edge">
<title>DESCENT&#45;&gt;TOUCHDOWN_ALIGNMENT</title>
<path fill="none" stroke="#000000" d="M308.9878,-190.6262C309.6978,-177.4212 310.6683,-159.369 311.477,-144.3274"/>
<polygon fill="#000000" stroke="#000000" points="314.9892,-144.1927 312.0312,-134.0192 307.9993,-143.8168 314.9892,-144.1927"/>
<text text-anchor="middle" x="311.3895" y="-165" font-family="Helvetica,sans-Serif" font-size="10.00" fill="#000000"> </text>
</g>
<!-- TOUCHDOWN -->
<g id="node14" class="node">
<title>TOUCHDOWN</title>
<polygon fill="transparent" stroke="transparent" stroke-width="2" points="344,-52 242,-52 242,-16 344,-16 344,-52"/>
<text text-anchor="start" x="252.6794" y="-30.2" font-family="Helvetica,sans-Serif" font-size="12.00" fill="#000000">TOUCHDOWN</text>
<path fill="none" stroke="#000000" stroke-width="2" d="M254.3333,-17C254.3333,-17 331.6667,-17 331.6667,-17 337.3333,-17 343,-22.6667 343,-28.3333 343,-28.3333 343,-39.6667 343,-39.6667 343,-45.3333 337.3333,-51 331.6667,-51 331.6667,-51 254.3333,-51 254.3333,-51 248.6667,-51 243,-45.3333 243,-39.6667 243,-39.6667 243,-28.3333 243,-28.3333 243,-22.6667 248.6667,-17 254.3333,-17"/>
</g>
<!-- TOUCHDOWN_ALIGNMENT&#45;&gt;TOUCHDOWN -->
<g id="edge14" class="edge">
<title>TOUCHDOWN_ALIGNMENT&#45;&gt;TOUCHDOWN</title>
<path fill="none" stroke="#000000" d="M308.5614,-97.8015C305.9979,-87.2915 302.7196,-73.8503 299.8336,-62.0177"/>
<polygon fill="#000000" stroke="#000000" points="303.1962,-61.0334 297.4262,-52.1476 296.3956,-62.6922 303.1962,-61.0334"/>
<text text-anchor="middle" x="305.3895" y="-72" font-family="Helvetica,sans-Serif" font-size="10.00" fill="#000000"> </text>
</g>
<!-- TOUCHDOWN&#45;&gt;DROPOFF -->
<g id="edge7" class="edge">
<title>TOUCHDOWN&#45;&gt;DROPOFF</title>
<path fill="none" stroke="#000000" d="M241.8427,-42.2037C209.5896,-48.876 174,-59.7039 174,-75 174,-209 174,-209 174,-209 174,-220.0421 171.6536,-231.8917 168.8168,-242.1828"/>
<polygon fill="#000000" stroke="#000000" points="165.4329,-241.2817 165.8854,-251.8668 172.1326,-243.3098 165.4329,-241.2817"/>
<text text-anchor="middle" x="175.3895" y="-145" font-family="Helvetica,sans-Serif" font-size="10.00" fill="#000000"> </text>
</g>
</g>
</svg>
