<?xml version="1.0" encoding="UTF-8" standalone="no"?>
<!DOCTYPE svg PUBLIC "-//W3C//DTD SVG 1.1//EN"
 "http://www.w3.org/Graphics/SVG/1.1/DTD/svg11.dtd">
<!-- Generated by graphviz version 2.40.1 (20161225.0304)
 -->
<!-- Title: state transitions Pages: 1 -->
<svg width="867pt" height="1246pt"
 viewBox="0.00 0.00 866.87 1246.00" xmlns="http://www.w3.org/2000/svg" xmlns:xlink="http://www.w3.org/1999/xlink">
<g id="graph0" class="graph" transform="scale(1 1) rotate(0) translate(4 1242)">
<title>state transitions</title>
<polygon fill="#ffffff" stroke="transparent" points="-4,4 -4,-1242 862.865,-1242 862.865,4 -4,4"/>
<g id="clust1" class="cluster">
<title>cluster_BrickPickupStateMachine</title>
<path fill="none" stroke="#000000" stroke-width="2" d="M198.1245,-47C198.1245,-47 673.1245,-47 673.1245,-47 679.1245,-47 685.1245,-53 685.1245,-59 685.1245,-59 685.1245,-1218 685.1245,-1218 685.1245,-1224 679.1245,-1230 673.1245,-1230 673.1245,-1230 198.1245,-1230 198.1245,-1230 192.1245,-1230 186.1245,-1224 186.1245,-1218 186.1245,-1218 186.1245,-59 186.1245,-59 186.1245,-53 192.1245,-47 198.1245,-47"/>
<text text-anchor="start" x="367.6133" y="-1211.2" font-family="Helvetica,sans-Serif" font-size="12.00" fill="#000000">BrickPickupStateMachine</text>
</g>
<g id="clust2" class="cluster">
<title>cluster_VisualServoStateMachine</title>
<path fill="none" stroke="#ffa500" stroke-width="2" d="M394.1245,-602C394.1245,-602 649.1245,-602 649.1245,-602 655.1245,-602 661.1245,-608 661.1245,-614 661.1245,-614 661.1245,-1180 661.1245,-1180 661.1245,-1186 655.1245,-1192 649.1245,-1192 649.1245,-1192 394.1245,-1192 394.1245,-1192 388.1245,-1192 382.1245,-1186 382.1245,-1180 382.1245,-1180 382.1245,-614 382.1245,-614 382.1245,-608 388.1245,-602 394.1245,-602"/>
<text text-anchor="start" x="453.4425" y="-1173.2" font-family="Helvetica,sans-Serif" font-size="12.00" fill="#000000">VisualServoStateMachine</text>
</g>
<g id="clust3" class="cluster">
<title>cluster_MasterStateMachine</title>
<path fill="none" stroke="#ff0000" stroke-width="2" d="M222.1245,-55C222.1245,-55 362.1245,-55 362.1245,-55 368.1245,-55 374.1245,-61 374.1245,-67 374.1245,-67 374.1245,-882 374.1245,-882 374.1245,-888 368.1245,-894 362.1245,-894 362.1245,-894 222.1245,-894 222.1245,-894 216.1245,-894 210.1245,-888 210.1245,-882 210.1245,-882 210.1245,-67 210.1245,-67 210.1245,-61 216.1245,-55 222.1245,-55"/>
<text text-anchor="start" x="237.1141" y="-875.2" font-family="Helvetica,sans-Serif" font-size="12.00" fill="#000000">MasterStateMachine</text>
</g>
<g id="clust4" class="cluster">
<title>cluster_GlobalStateMachine</title>
<path fill="none" stroke="#0000ff" stroke-width="2" d="M412.1245,-134C412.1245,-134 522.1245,-134 522.1245,-134 528.1245,-134 534.1245,-140 534.1245,-146 534.1245,-146 534.1245,-544 534.1245,-544 534.1245,-550 528.1245,-556 522.1245,-556 522.1245,-556 412.1245,-556 412.1245,-556 406.1245,-556 400.1245,-550 400.1245,-544 400.1245,-544 400.1245,-146 400.1245,-146 400.1245,-140 406.1245,-134 412.1245,-134"/>
<text text-anchor="start" x="413.1107" y="-537.2" font-family="Helvetica,sans-Serif" font-size="12.00" fill="#000000">GlobalStateMachine</text>
</g>
<!-- initial -->
<g id="node1" class="node">
<title>initial</title>
<ellipse fill="#000000" stroke="#000000" stroke-width="2" cx="29.1245" cy="-838" rx="5.5" ry="5.5"/>
</g>
<!-- IDLE -->
<g id="node2" class="node">
<title>IDLE</title>
<polygon fill="transparent" stroke="transparent" stroke-width="2" points="157.1245,-792 101.1245,-792 101.1245,-756 157.1245,-756 157.1245,-792"/>
<text text-anchor="start" x="115.7889" y="-770.2" font-family="Helvetica,sans-Serif" font-size="12.00" fill="#000000">IDLE</text>
<path fill="none" stroke="#000000" stroke-width="2" d="M113.4578,-757C113.4578,-757 144.7912,-757 144.7912,-757 150.4578,-757 156.1245,-762.6667 156.1245,-768.3333 156.1245,-768.3333 156.1245,-779.6667 156.1245,-779.6667 156.1245,-785.3333 150.4578,-791 144.7912,-791 144.7912,-791 113.4578,-791 113.4578,-791 107.7912,-791 102.1245,-785.3333 102.1245,-779.6667 102.1245,-779.6667 102.1245,-768.3333 102.1245,-768.3333 102.1245,-762.6667 107.7912,-757 113.4578,-757"/>
</g>
<!-- initial&#45;&gt;IDLE -->
<g id="edge1" class="edge">
<title>initial&#45;&gt;IDLE</title>
<path fill="none" stroke="#000000" d="M27.3218,-832.6863C24.9731,-824.6866 21.9756,-809.4793 29.3455,-800 37.0229,-790.1252 66.0513,-783.2837 90.8327,-779.1064"/>
<polygon fill="#000000" stroke="#000000" points="91.4387,-782.5541 100.7669,-777.5305 90.342,-775.6406 91.4387,-782.5541"/>
<text text-anchor="start" x="30.1245" y="-803" font-family="Helvetica,sans-Serif" font-size="10.00" fill="#000000">UAV &#45; ON &#160;&#160;</text>
</g>
<!-- ARM -->
<g id="node11" class="node">
<title>ARM</title>
<polygon fill="transparent" stroke="transparent" stroke-width="2" points="274.1245,-856 218.1245,-856 218.1245,-820 274.1245,-820 274.1245,-856"/>
<text text-anchor="start" x="232.7943" y="-834.2" font-family="Helvetica,sans-Serif" font-size="12.00" fill="#000000">ARM</text>
<path fill="none" stroke="#000000" stroke-width="2" d="M230.4578,-821C230.4578,-821 261.7912,-821 261.7912,-821 267.4578,-821 273.1245,-826.6667 273.1245,-832.3333 273.1245,-832.3333 273.1245,-843.6667 273.1245,-843.6667 273.1245,-849.3333 267.4578,-855 261.7912,-855 261.7912,-855 230.4578,-855 230.4578,-855 224.7912,-855 219.1245,-849.3333 219.1245,-843.6667 219.1245,-843.6667 219.1245,-832.3333 219.1245,-832.3333 219.1245,-826.6667 224.7912,-821 230.4578,-821"/>
</g>
<!-- IDLE&#45;&gt;ARM -->
<g id="edge2" class="edge">
<title>IDLE&#45;&gt;ARM</title>
<path fill="none" stroke="#000000" d="M110.5324,-792.3211C106.0533,-798.8877 103.7968,-806.1156 108.6725,-812 121.0479,-826.9358 171.4927,-833.3554 207.6817,-836.0714"/>
<polygon fill="#000000" stroke="#000000" points="207.7161,-839.5818 217.9316,-836.7721 208.1936,-832.5981 207.7161,-839.5818"/>
<text text-anchor="start" x="109.1245" y="-803" font-family="Helvetica,sans-Serif" font-size="10.00" fill="#000000">Scenario &#45; START &#160;&#160;</text>
</g>
<!-- final -->
<g id="node3" class="node">
<title>final</title>
<ellipse fill="#000000" stroke="#000000" stroke-width="2" cx="267.1245" cy="-9.5" rx="5.5" ry="5.5"/>
<ellipse fill="none" stroke="#000000" stroke-width="2" cx="267.1245" cy="-9.5" rx="9.5" ry="9.5"/>
</g>
<!-- BrickPickupStateMachine -->
<!-- VisualServoStateMachine -->
<!-- i_note_tr_VisualServoStateMachine_APPROACH_7 -->
<!-- VisualServoStateMachine&#45;&gt;i_note_tr_VisualServoStateMachine_APPROACH_7 -->
<g id="edge9" class="edge">
<title>VisualServoStateMachine&#45;&gt;i_note_tr_VisualServoStateMachine_APPROACH_7</title>
<path fill="none" stroke="#ffa500" d="M661.1215,-1134.8887C677.0295,-1132.1802 711.1245,-1123.6723 711.1245,-1100.5 711.1245,-1100.5 711.1245,-1100.5 711.1245,-429 711.1245,-410.6067 699.8628,-389.3729 699.1589,-388.0637"/>
</g>
<!-- BRICK_ALIGNMENT -->
<g id="node6" class="node">
<title>BRICK_ALIGNMENT</title>
<polygon fill="transparent" stroke="transparent" stroke-width="2" points="630.6245,-1154 495.6245,-1154 495.6245,-1118 630.6245,-1118 630.6245,-1154"/>
<text text-anchor="start" x="506.9575" y="-1132.2" font-family="Helvetica,sans-Serif" font-size="12.00" fill="#000000">BRICK_ALIGNMENT</text>
<path fill="none" stroke="#000000" stroke-width="2" d="M507.9578,-1119C507.9578,-1119 618.2912,-1119 618.2912,-1119 623.9578,-1119 629.6245,-1124.6667 629.6245,-1130.3333 629.6245,-1130.3333 629.6245,-1141.6667 629.6245,-1141.6667 629.6245,-1147.3333 623.9578,-1153 618.2912,-1153 618.2912,-1153 507.9578,-1153 507.9578,-1153 502.2912,-1153 496.6245,-1147.3333 496.6245,-1141.6667 496.6245,-1141.6667 496.6245,-1130.3333 496.6245,-1130.3333 496.6245,-1124.6667 502.2912,-1119 507.9578,-1119"/>
</g>
<!-- DESCENT -->
<g id="node7" class="node">
<title>DESCENT</title>
<polygon fill="transparent" stroke="transparent" stroke-width="2" points="480.6245,-1024 401.6245,-1024 401.6245,-988 480.6245,-988 480.6245,-1024"/>
<text text-anchor="start" x="412.9607" y="-1002.2" font-family="Helvetica,sans-Serif" font-size="12.00" fill="#000000">DESCENT</text>
<path fill="none" stroke="#000000" stroke-width="2" d="M413.9578,-989C413.9578,-989 468.2912,-989 468.2912,-989 473.9578,-989 479.6245,-994.6667 479.6245,-1000.3333 479.6245,-1000.3333 479.6245,-1011.6667 479.6245,-1011.6667 479.6245,-1017.3333 473.9578,-1023 468.2912,-1023 468.2912,-1023 413.9578,-1023 413.9578,-1023 408.2912,-1023 402.6245,-1017.3333 402.6245,-1011.6667 402.6245,-1011.6667 402.6245,-1000.3333 402.6245,-1000.3333 402.6245,-994.6667 408.2912,-989 413.9578,-989"/>
</g>
<!-- BRICK_ALIGNMENT&#45;&gt;DESCENT -->
<g id="edge16" class="edge">
<title>BRICK_ALIGNMENT&#45;&gt;DESCENT</title>
<path fill="none" stroke="#ffa500" d="M499.7187,-1117.9673C475.7396,-1110.686 454.1245,-1103.336 454.1245,-1100.5 454.1245,-1100.5 454.1245,-1100.5 454.1245,-1041.5 454.1245,-1039.0633 453.8511,-1036.5868 453.3836,-1034.1332"/>
<polygon fill="#ffa500" stroke="#ffa500" points="456.695,-1032.9836 450.5722,-1024.3371 449.9666,-1034.9147 456.695,-1032.9836"/>
<text text-anchor="start" x="454.1245" y="-1074" font-family="Helvetica,sans-Serif" font-size="10.00" fill="#ffa500">Constraints &#45; &#160;&#160;&#160;</text>
<text text-anchor="start" x="454.1245" y="-1062" font-family="Helvetica,sans-Serif" font-size="10.00" fill="#ffa500">SATISFIED &#160;&#160;</text>
</g>
<!-- TOUCHDOWN_ALIGNMENT -->
<g id="node8" class="node">
<title>TOUCHDOWN_ALIGNMENT</title>
<polygon fill="transparent" stroke="transparent" stroke-width="2" points="569.6245,-856 390.6245,-856 390.6245,-820 569.6245,-820 569.6245,-856"/>
<text text-anchor="start" x="401.9699" y="-834.2" font-family="Helvetica,sans-Serif" font-size="12.00" fill="#000000">TOUCHDOWN_ALIGNMENT</text>
<path fill="none" stroke="#000000" stroke-width="2" d="M402.9578,-821C402.9578,-821 557.2912,-821 557.2912,-821 562.9578,-821 568.6245,-826.6667 568.6245,-832.3333 568.6245,-832.3333 568.6245,-843.6667 568.6245,-843.6667 568.6245,-849.3333 562.9578,-855 557.2912,-855 557.2912,-855 402.9578,-855 402.9578,-855 397.2912,-855 391.6245,-849.3333 391.6245,-843.6667 391.6245,-843.6667 391.6245,-832.3333 391.6245,-832.3333 391.6245,-826.6667 397.2912,-821 402.9578,-821"/>
</g>
<!-- DESCENT&#45;&gt;TOUCHDOWN_ALIGNMENT -->
<g id="edge17" class="edge">
<title>DESCENT&#45;&gt;TOUCHDOWN_ALIGNMENT</title>
<path fill="none" stroke="#ffa500" d="M418.8506,-987.7613C414.9565,-982.7208 412.1245,-976.8666 412.1245,-970.5 412.1245,-970.5 412.1245,-970.5 412.1245,-911.5 412.1245,-891.5153 425.8374,-874.6575 440.9472,-862.1483"/>
<polygon fill="#ffa500" stroke="#ffa500" points="443.1275,-864.8869 448.9108,-856.0097 438.8539,-859.3428 443.1275,-864.8869"/>
<text text-anchor="start" x="412.1245" y="-944" font-family="Helvetica,sans-Serif" font-size="10.00" fill="#ffa500">TOUCHDOWN height &#45; &#160;&#160;&#160;</text>
<text text-anchor="start" x="412.1245" y="-932" font-family="Helvetica,sans-Serif" font-size="10.00" fill="#ffa500">REACHED &#160;&#160;</text>
</g>
<!-- TOUCHDOWN -->
<g id="node9" class="node">
<title>TOUCHDOWN</title>
<polygon fill="transparent" stroke="transparent" stroke-width="2" points="531.1245,-646 429.1245,-646 429.1245,-610 531.1245,-610 531.1245,-646"/>
<text text-anchor="start" x="439.8039" y="-624.2" font-family="Helvetica,sans-Serif" font-size="12.00" fill="#000000">TOUCHDOWN</text>
<path fill="none" stroke="#000000" stroke-width="2" d="M441.4578,-611C441.4578,-611 518.7912,-611 518.7912,-611 524.4578,-611 530.1245,-616.6667 530.1245,-622.3333 530.1245,-622.3333 530.1245,-633.6667 530.1245,-633.6667 530.1245,-639.3333 524.4578,-645 518.7912,-645 518.7912,-645 441.4578,-645 441.4578,-645 435.7912,-645 430.1245,-639.3333 430.1245,-633.6667 430.1245,-633.6667 430.1245,-622.3333 430.1245,-622.3333 430.1245,-616.6667 435.7912,-611 441.4578,-611"/>
</g>
<!-- TOUCHDOWN_ALIGNMENT&#45;&gt;TOUCHDOWN -->
<g id="edge18" class="edge">
<title>TOUCHDOWN_ALIGNMENT&#45;&gt;TOUCHDOWN</title>
<path fill="none" stroke="#ffa500" d="M480.1245,-819.7928C480.1245,-806.9854 480.1245,-789.4444 480.1245,-774 480.1245,-774 480.1245,-774 480.1245,-675 480.1245,-669.0842 480.1245,-662.7496 480.1245,-656.7078"/>
<polygon fill="#ffa500" stroke="#ffa500" points="483.6246,-656.3026 480.1245,-646.3026 476.6246,-656.3026 483.6246,-656.3026"/>
<text text-anchor="start" x="480.1245" y="-730" font-family="Helvetica,sans-Serif" font-size="10.00" fill="#ffa500">Constraints &#45; &#160;&#160;&#160;</text>
<text text-anchor="start" x="480.1245" y="-718" font-family="Helvetica,sans-Serif" font-size="10.00" fill="#ffa500">SATISFIED &#160;&#160;</text>
</g>
<!-- TOUCHDOWN&#45;&gt;BRICK_ALIGNMENT -->
<g id="edge19" class="edge">
<title>TOUCHDOWN&#45;&gt;BRICK_ALIGNMENT</title>
<path fill="none" stroke="#ffa500" d="M499.6355,-646.2429C516.1584,-662.7233 539.3021,-688.4082 553.1245,-715 590.2627,-786.4472 587.6214,-813.7395 581.1245,-894 578.6721,-924.2966 570.1245,-931.1043 570.1245,-961.5 570.1245,-1100.5 570.1245,-1100.5 570.1245,-1100.5 570.1245,-1102.8851 569.9705,-1105.3437 569.7082,-1107.8014"/>
<polygon fill="#ffa500" stroke="#ffa500" points="566.2465,-1107.2848 568.1373,-1117.7095 573.1601,-1108.381 566.2465,-1107.2848"/>
<text text-anchor="start" x="574.1245" y="-944" font-family="Helvetica,sans-Serif" font-size="10.00" fill="#ffa500">Pickup &#45; &#160;&#160;</text>
<text text-anchor="start" x="574.1245" y="-932" font-family="Helvetica,sans-Serif" font-size="10.00" fill="#ffa500">UNSUCESSFUL &#160;&#160;</text>
</g>
<!-- DROPOFF -->
<g id="node17" class="node">
<title>DROPOFF</title>
<polygon fill="transparent" stroke="transparent" stroke-width="2" points="488.1245,-518 408.1245,-518 408.1245,-482 488.1245,-482 488.1245,-518"/>
<text text-anchor="start" x="418.7947" y="-496.2" font-family="Helvetica,sans-Serif" font-size="12.00" fill="#000000">DROPOFF</text>
<path fill="none" stroke="#000000" stroke-width="2" d="M420.4578,-483C420.4578,-483 475.7912,-483 475.7912,-483 481.4578,-483 487.1245,-488.6667 487.1245,-494.3333 487.1245,-494.3333 487.1245,-505.6667 487.1245,-505.6667 487.1245,-511.3333 481.4578,-517 475.7912,-517 475.7912,-517 420.4578,-517 420.4578,-517 414.7912,-517 409.1245,-511.3333 409.1245,-505.6667 409.1245,-505.6667 409.1245,-494.3333 409.1245,-494.3333 409.1245,-488.6667 414.7912,-483 420.4578,-483"/>
</g>
<!-- TOUCHDOWN&#45;&gt;DROPOFF -->
<g id="edge13" class="edge">
<title>TOUCHDOWN&#45;&gt;DROPOFF</title>
<path fill="none" stroke="#ffa500" d="M475.6076,-609.9322C470.3013,-588.7071 461.4336,-553.2365 455.2096,-528.3403"/>
<polygon fill="#ffa500" stroke="#ffa500" points="458.543,-527.2429 452.7221,-518.3904 451.752,-528.9407 458.543,-527.2429"/>
<text text-anchor="start" x="469.1245" y="-576" font-family="Helvetica,sans-Serif" font-size="10.00" fill="#ffa500">Pickup &#45; SUCCESSFUL &#160;&#160;</text>
</g>
<!-- MasterStateMachine -->
<!-- ARM&#45;&gt;IDLE -->
<g id="edge3" class="edge">
<title>ARM&#45;&gt;IDLE</title>
<path fill="none" stroke="#ff0000" d="M226.5799,-819.8199C218.5084,-812.9663 208.7892,-805.5051 199.1245,-800 189.12,-794.3014 177.6322,-789.4275 166.8943,-785.4919"/>
<polygon fill="#ff0000" stroke="#ff0000" points="167.9028,-782.1369 157.3079,-782.1447 165.5952,-788.7456 167.9028,-782.1369"/>
<text text-anchor="start" x="215.1245" y="-803" font-family="Helvetica,sans-Serif" font-size="10.00" fill="#ff0000">Arm FAIL &#160;&#160;</text>
</g>
<!-- TAKEOFF -->
<g id="node12" class="node">
<title>TAKEOFF</title>
<polygon fill="transparent" stroke="transparent" stroke-width="2" points="305.6245,-646 228.6245,-646 228.6245,-610 305.6245,-610 305.6245,-646"/>
<text text-anchor="start" x="239.9567" y="-624.2" font-family="Helvetica,sans-Serif" font-size="12.00" fill="#000000">TAKEOFF</text>
<path fill="none" stroke="#000000" stroke-width="2" d="M240.9578,-611C240.9578,-611 293.2912,-611 293.2912,-611 298.9578,-611 304.6245,-616.6667 304.6245,-622.3333 304.6245,-622.3333 304.6245,-633.6667 304.6245,-633.6667 304.6245,-639.3333 298.9578,-645 293.2912,-645 293.2912,-645 240.9578,-645 240.9578,-645 235.2912,-645 229.6245,-639.3333 229.6245,-633.6667 229.6245,-633.6667 229.6245,-622.3333 229.6245,-622.3333 229.6245,-616.6667 235.2912,-611 240.9578,-611"/>
</g>
<!-- ARM&#45;&gt;TAKEOFF -->
<g id="edge20" class="edge">
<title>ARM&#45;&gt;TAKEOFF</title>
<path fill="none" stroke="#ff0000" d="M265.5939,-819.8548C267.6505,-817.3553 269.5585,-814.7113 271.1245,-812 279.9184,-796.7749 282.1245,-791.5823 282.1245,-774 282.1245,-774 282.1245,-774 282.1245,-675 282.1245,-668.7447 280.9037,-662.2334 279.1587,-656.1212"/>
<polygon fill="#ff0000" stroke="#ff0000" points="282.3666,-654.681 275.8501,-646.3273 275.7348,-656.9215 282.3666,-654.681"/>
<text text-anchor="start" x="282.1245" y="-724" font-family="Helvetica,sans-Serif" font-size="10.00" fill="#ff0000">Arm &#45; SUCCESS &#160;&#160;</text>
</g>
<!-- TAKEOFF&#45;&gt;IDLE -->
<g id="edge4" class="edge">
<title>TAKEOFF&#45;&gt;IDLE</title>
<path fill="none" stroke="#ff0000" d="M249.709,-646.4251C225.3144,-672.2338 180.8709,-719.2538 153.2877,-748.4361"/>
<polygon fill="#ff0000" stroke="#ff0000" points="150.6489,-746.1326 146.3233,-755.8042 155.736,-750.941 150.6489,-746.1326"/>
<text text-anchor="start" x="202.1245" y="-698" font-family="Helvetica,sans-Serif" font-size="10.00" fill="#ff0000">Takeoff &#45; FAIL &#160;&#160;</text>
</g>
<!-- GLOBAL_SEARCH -->
<g id="node13" class="node">
<title>GLOBAL_SEARCH</title>
<polygon fill="transparent" stroke="transparent" stroke-width="2" points="344.1245,-447 218.1245,-447 218.1245,-411 344.1245,-411 344.1245,-447"/>
<text text-anchor="start" x="228.7823" y="-425.2" font-family="Helvetica,sans-Serif" font-size="12.00" fill="#000000">GLOBAL_SEARCH</text>
<path fill="none" stroke="#000000" stroke-width="2" d="M230.4578,-412C230.4578,-412 331.7912,-412 331.7912,-412 337.4578,-412 343.1245,-417.6667 343.1245,-423.3333 343.1245,-423.3333 343.1245,-434.6667 343.1245,-434.6667 343.1245,-440.3333 337.4578,-446 331.7912,-446 331.7912,-446 230.4578,-446 230.4578,-446 224.7912,-446 219.1245,-440.3333 219.1245,-434.6667 219.1245,-434.6667 219.1245,-423.3333 219.1245,-423.3333 219.1245,-417.6667 224.7912,-412 230.4578,-412"/>
</g>
<!-- TAKEOFF&#45;&gt;GLOBAL_SEARCH -->
<g id="edge21" class="edge">
<title>TAKEOFF&#45;&gt;GLOBAL_SEARCH</title>
<path fill="none" stroke="#ff0000" d="M267.1245,-609.8493C267.1245,-600.613 267.1245,-589.2083 267.1245,-579 267.1245,-579 267.1245,-579 267.1245,-464.5 267.1245,-462.0404 267.4189,-459.5476 267.9224,-457.083"/>
<polygon fill="#ff0000" stroke="#ff0000" points="271.3471,-457.8544 270.9501,-447.267 264.6581,-455.7911 271.3471,-457.8544"/>
<text text-anchor="start" x="267.1245" y="-497" font-family="Helvetica,sans-Serif" font-size="10.00" fill="#ff0000">Takeoff &#45; SUCCESS &#160;&#160;</text>
</g>
<!-- RTL -->
<g id="node14" class="node">
<title>RTL</title>
<polygon fill="transparent" stroke="transparent" stroke-width="2" points="295.1245,-249 239.1245,-249 239.1245,-213 295.1245,-213 295.1245,-249"/>
<text text-anchor="start" x="255.7923" y="-227.2" font-family="Helvetica,sans-Serif" font-size="12.00" fill="#000000">RTL</text>
<path fill="none" stroke="#000000" stroke-width="2" d="M251.4578,-214C251.4578,-214 282.7912,-214 282.7912,-214 288.4578,-214 294.1245,-219.6667 294.1245,-225.3333 294.1245,-225.3333 294.1245,-236.6667 294.1245,-236.6667 294.1245,-242.3333 288.4578,-248 282.7912,-248 282.7912,-248 251.4578,-248 251.4578,-248 245.7912,-248 240.1245,-242.3333 240.1245,-236.6667 240.1245,-236.6667 240.1245,-225.3333 240.1245,-225.3333 240.1245,-219.6667 245.7912,-214 251.4578,-214"/>
</g>
<!-- GLOBAL_SEARCH&#45;&gt;RTL -->
<g id="edge22" class="edge">
<title>GLOBAL_SEARCH&#45;&gt;RTL</title>
<path fill="none" stroke="#ff0000" d="M273.114,-410.7917C264.2478,-387.6703 253.2231,-347.2685 269.5595,-318 276.5746,-305.4316 290.1094,-313.5684 297.1245,-301 302.3232,-291.686 300.1639,-287.2245 297.1245,-277 295.1166,-270.2456 291.7677,-263.5573 288.0194,-257.4598"/>
<polygon fill="#ff0000" stroke="#ff0000" points="290.8289,-255.3652 282.3516,-249.0101 285.0156,-259.2646 290.8289,-255.3652"/>
<text text-anchor="start" x="269.1245" y="-333" font-family="Helvetica,sans-Serif" font-size="10.00" fill="#ff0000">Global Search &#45; TIMEOUT &#160;&#160;</text>
</g>
<!-- APPROACH -->
<g id="node18" class="node">
<title>APPROACH</title>
<polygon fill="transparent" stroke="transparent" stroke-width="2" points="500.6245,-354 411.6245,-354 411.6245,-318 500.6245,-318 500.6245,-354"/>
<text text-anchor="start" x="422.9573" y="-332.2" font-family="Helvetica,sans-Serif" font-size="12.00" fill="#000000">APPROACH</text>
<path fill="none" stroke="#000000" stroke-width="2" d="M423.9578,-319C423.9578,-319 488.2912,-319 488.2912,-319 493.9578,-319 499.6245,-324.6667 499.6245,-330.3333 499.6245,-330.3333 499.6245,-341.6667 499.6245,-341.6667 499.6245,-347.3333 493.9578,-353 488.2912,-353 488.2912,-353 423.9578,-353 423.9578,-353 418.2912,-353 412.6245,-347.3333 412.6245,-341.6667 412.6245,-341.6667 412.6245,-330.3333 412.6245,-330.3333 412.6245,-324.6667 418.2912,-319 423.9578,-319"/>
</g>
<!-- GLOBAL_SEARCH&#45;&gt;APPROACH -->
<g id="edge15" class="edge">
<title>GLOBAL_SEARCH&#45;&gt;APPROACH</title>
<path fill="none" stroke="#ff0000" d="M308.2301,-410.974C322.3849,-401.8549 340.1382,-390.8698 356.5695,-382 371.8318,-373.7613 388.8378,-365.5614 404.4142,-358.4158"/>
<polygon fill="#ff0000" stroke="#ff0000" points="406.2393,-361.4312 413.8996,-354.112 403.3469,-355.0567 406.2393,-361.4312"/>
<text text-anchor="start" x="356.1245" y="-385" font-family="Helvetica,sans-Serif" font-size="10.00" fill="#ff0000">Target FOUND &#160;&#160;</text>
</g>
<!-- LAND -->
<g id="node15" class="node">
<title>LAND</title>
<polygon fill="transparent" stroke="transparent" stroke-width="2" points="295.1245,-99 239.1245,-99 239.1245,-63 295.1245,-63 295.1245,-99"/>
<text text-anchor="start" x="251.1249" y="-77.2" font-family="Helvetica,sans-Serif" font-size="12.00" fill="#000000">LAND</text>
<path fill="none" stroke="#000000" stroke-width="2" d="M251.4578,-64C251.4578,-64 282.7912,-64 282.7912,-64 288.4578,-64 294.1245,-69.6667 294.1245,-75.3333 294.1245,-75.3333 294.1245,-86.6667 294.1245,-86.6667 294.1245,-92.3333 288.4578,-98 282.7912,-98 282.7912,-98 251.4578,-98 251.4578,-98 245.7912,-98 240.1245,-92.3333 240.1245,-86.6667 240.1245,-86.6667 240.1245,-75.3333 240.1245,-75.3333 240.1245,-69.6667 245.7912,-64 251.4578,-64"/>
</g>
<!-- RTL&#45;&gt;LAND -->
<g id="edge23" class="edge">
<title>RTL&#45;&gt;LAND</title>
<path fill="none" stroke="#ff0000" d="M267.1245,-212.9402C267.1245,-207.3497 267.1245,-201.1701 267.1245,-195.5 267.1245,-195.5 267.1245,-195.5 267.1245,-116.5 267.1245,-114.1079 267.1245,-111.6252 267.1245,-109.1342"/>
<polygon fill="#ff0000" stroke="#ff0000" points="270.6246,-109.0597 267.1245,-99.0598 263.6246,-109.0598 270.6246,-109.0597"/>
<text text-anchor="start" x="267.1245" y="-157" font-family="Helvetica,sans-Serif" font-size="10.00" fill="#ff0000">Launch &#45; REACHED &#160;&#160;</text>
</g>
<!-- LAND&#45;&gt;final -->
<g id="edge8" class="edge">
<title>LAND&#45;&gt;final</title>
<path fill="none" stroke="#000000" d="M267.1245,-62.9575C267.1245,-52.7496 267.1245,-39.9647 267.1245,-29.4576"/>
<polygon fill="#000000" stroke="#000000" points="270.6246,-29.18 267.1245,-19.18 263.6246,-29.18 270.6246,-29.18"/>
<text text-anchor="start" x="267.1245" y="-30" font-family="Helvetica,sans-Serif" font-size="10.00" fill="#000000">Scenario &#45; END &#160;&#160;</text>
</g>
<!-- GlobalStateMachine -->
<!-- DROPOFF&#45;&gt;APPROACH -->
<g id="edge24" class="edge">
<title>DROPOFF&#45;&gt;APPROACH</title>
<path fill="none" stroke="#0000ff" d="M440.9634,-481.8471C439.3605,-476.3612 438.1245,-470.2627 438.1245,-464.5 438.1245,-464.5 438.1245,-464.5 438.1245,-388 438.1245,-379.8961 440.1009,-371.4532 442.7439,-363.7858"/>
<polygon fill="#0000ff" stroke="#0000ff" points="446.0924,-364.8341 446.4922,-354.2468 439.5774,-362.274 446.0924,-364.8341"/>
<text text-anchor="start" x="438.1245" y="-432" font-family="Helvetica,sans-Serif" font-size="10.00" fill="#0000ff">Mission Request &#45; &#160;&#160;</text>
<text text-anchor="start" x="438.1245" y="-420" font-family="Helvetica,sans-Serif" font-size="10.00" fill="#0000ff">NEW TARGET &#160;&#160;</text>
</g>
<!-- i_note_tr_DROPOFF_RTL_5 -->
<!-- DROPOFF&#45;&gt;i_note_tr_DROPOFF_RTL_5 -->
<g id="edge5" class="edge">
<title>DROPOFF&#45;&gt;i_note_tr_DROPOFF_RTL_5</title>
<path fill="none" stroke="#0000ff" d="M407.8826,-488.2362C398.5112,-485.8504 388.5238,-483.5889 379.1245,-482 355.0551,-477.9312 160.1245,-488.9109 160.1245,-464.5 160.1245,-464.5 160.1245,-464.5 160.1245,-336 160.1245,-315.5997 165.7554,-290.6166 166.1073,-289.0751"/>
</g>
<!-- LOCAL_SEARCH -->
<g id="node19" class="node">
<title>LOCAL_SEARCH</title>
<polygon fill="transparent" stroke="transparent" stroke-width="2" points="526.1245,-178 408.1245,-178 408.1245,-142 526.1245,-142 526.1245,-178"/>
<text text-anchor="start" x="419.1197" y="-156.2" font-family="Helvetica,sans-Serif" font-size="12.00" fill="#000000">LOCAL_SEARCH</text>
<path fill="none" stroke="#000000" stroke-width="2" d="M420.4578,-143C420.4578,-143 513.7912,-143 513.7912,-143 519.4578,-143 525.1245,-148.6667 525.1245,-154.3333 525.1245,-154.3333 525.1245,-165.6667 525.1245,-165.6667 525.1245,-171.3333 519.4578,-177 513.7912,-177 513.7912,-177 420.4578,-177 420.4578,-177 414.7912,-177 409.1245,-171.3333 409.1245,-165.6667 409.1245,-165.6667 409.1245,-154.3333 409.1245,-154.3333 409.1245,-148.6667 414.7912,-143 420.4578,-143"/>
</g>
<!-- APPROACH&#45;&gt;LOCAL_SEARCH -->
<g id="edge25" class="edge">
<title>APPROACH&#45;&gt;LOCAL_SEARCH</title>
<path fill="none" stroke="#0000ff" d="M458.4049,-317.7281C459.3032,-309.0402 460.1245,-298.4995 460.1245,-289 460.1245,-289 460.1245,-289 460.1245,-195.5 460.1245,-193.1149 460.2785,-190.6563 460.5408,-188.1986"/>
<polygon fill="#0000ff" stroke="#0000ff" points="464.0025,-188.7152 462.1117,-178.2905 457.0889,-187.619 464.0025,-188.7152"/>
<text text-anchor="start" x="460.1245" y="-234" font-family="Helvetica,sans-Serif" font-size="10.00" fill="#0000ff">Target &#45; &#160;&#160;&#160;</text>
<text text-anchor="start" x="460.1245" y="-222" font-family="Helvetica,sans-Serif" font-size="10.00" fill="#0000ff">REACHED &#160;&#160;</text>
</g>
<!-- LOCAL_SEARCH&#45;&gt;BRICK_ALIGNMENT -->
<g id="edge14" class="edge">
<title>LOCAL_SEARCH&#45;&gt;BRICK_ALIGNMENT</title>
<path fill="none" stroke="#0000ff" d="M526.4074,-167.8642C571.2405,-174.6504 625.1245,-184.9922 625.1245,-195.5 625.1245,-654.5 625.1245,-654.5 625.1245,-654.5 625.1245,-792.8144 676.1245,-823.1856 676.1245,-961.5 676.1245,-1100.5 676.1245,-1100.5 676.1245,-1100.5 676.1245,-1105.4262 660.292,-1111.6384 640.4797,-1117.4837"/>
<polygon fill="#0000ff" stroke="#0000ff" points="639.4787,-1114.1295 630.8142,-1120.2267 641.3899,-1120.8636 639.4787,-1114.1295"/>
<text text-anchor="start" x="625.1245" y="-678" font-family="Helvetica,sans-Serif" font-size="10.00" fill="#0000ff">Target &#45; &#160;&#160;&#160;</text>
<text text-anchor="start" x="625.1245" y="-666" font-family="Helvetica,sans-Serif" font-size="10.00" fill="#0000ff">IN SIGHT &#160;&#160;</text>
</g>
<!-- LOCAL_SEARCH&#45;&gt;GLOBAL_SEARCH -->
<g id="edge12" class="edge">
<title>LOCAL_SEARCH&#45;&gt;GLOBAL_SEARCH</title>
<path fill="none" stroke="#0000ff" d="M408.0936,-172.8754C398.4402,-174.75 388.5238,-176.5375 379.1245,-178 361.1259,-180.8005 216.1245,-177.2848 216.1245,-195.5 216.1245,-263 216.1245,-263 216.1245,-263 216.1245,-279.89 212.8603,-284.5181 216.5505,-301 226.4824,-345.3603 238.6098,-353.4337 259.1245,-394 260.5051,-396.73 262.0358,-399.5212 263.6285,-402.2776"/>
<polygon fill="#0000ff" stroke="#0000ff" points="260.6439,-404.1059 268.8186,-410.8457 266.6311,-400.4792 260.6439,-404.1059"/>
<text text-anchor="start" x="216.1245" y="-292" font-family="Helvetica,sans-Serif" font-size="10.00" fill="#0000ff">Local Search &#45; &#160;&#160;&#160;</text>
<text text-anchor="start" x="216.1245" y="-280" font-family="Helvetica,sans-Serif" font-size="10.00" fill="#0000ff">TIMEOUT &#160;&#160;</text>
</g>
<!-- i_note_tr_DROPOFF_RTL_5&#45;&gt;RTL -->
<g id="edge6" class="edge">
<title>i_note_tr_DROPOFF_RTL_5&#45;&gt;RTL</title>
<path fill="none" stroke="#0000ff" d="M166.1977,-288.958C167.9818,-287.9334 202.0296,-268.3812 230.0919,-252.2662"/>
<polygon fill="#0000ff" stroke="#0000ff" points="232.0153,-255.1978 238.9442,-247.1827 228.5294,-249.1275 232.0153,-255.1978"/>
<text text-anchor="middle" x="220.514" y="-260" font-family="Helvetica,sans-Serif" font-size="10.00" fill="#0000ff"> </text>
</g>
<!-- note_tr_DROPOFF_RTL_5 -->
<g id="node21" class="node">
<title>note_tr_DROPOFF_RTL_5</title>
<polygon fill="#ffffcc" stroke="#000000" points="172.3737,-249 -.1247,-249 -.1247,-213 178.3737,-213 178.3737,-243 172.3737,-249"/>
<polyline fill="none" stroke="#000000" points="172.3737,-249 172.3737,-243 "/>
<polyline fill="none" stroke="#000000" points="178.3737,-243 172.3737,-243 "/>
<text text-anchor="start" x="8" y="-228" font-family="Helvetica,sans-Serif" font-size="10.00" fill="#000000">There are no new available missions</text>
</g>
<!-- i_note_tr_DROPOFF_RTL_5&#45;&gt;note_tr_DROPOFF_RTL_5 -->
<g id="edge7" class="edge">
<title>i_note_tr_DROPOFF_RTL_5&#45;&gt;note_tr_DROPOFF_RTL_5</title>
<path fill="none" stroke="#000000" stroke-dasharray="5,2" d="M166.0687,-288.958C164.6205,-287.8671 135.2895,-265.7736 113.2699,-249.1875"/>
</g>
<!-- i_note_tr_VisualServoStateMachine_APPROACH_7&#45;&gt;APPROACH -->
<g id="edge10" class="edge">
<title>i_note_tr_VisualServoStateMachine_APPROACH_7&#45;&gt;APPROACH</title>
<path fill="none" stroke="#ffa500" d="M699.0802,-387.9905C696.4988,-387.4381 581.596,-362.8499 510.7512,-347.6897"/>
<polygon fill="#ffa500" stroke="#ffa500" points="511.148,-344.1954 500.637,-345.5253 509.6832,-351.0404 511.148,-344.1954"/>
<text text-anchor="middle" x="628.514" y="-365" font-family="Helvetica,sans-Serif" font-size="10.00" fill="#ffa500"> </text>
</g>
<!-- note_tr_VisualServoStateMachine_APPROACH_7 -->
<g id="node23" class="node">
<title>note_tr_VisualServoStateMachine_APPROACH_7</title>
<polygon fill="#ffffcc" stroke="#000000" points="853.1062,-354 693.1428,-354 693.1428,-318 859.1062,-318 859.1062,-348 853.1062,-354"/>
<polyline fill="none" stroke="#000000" points="853.1062,-354 853.1062,-348 "/>
<polyline fill="none" stroke="#000000" points="859.1062,-348 853.1062,-348 "/>
<text text-anchor="start" x="701.384" y="-339" font-family="Helvetica,sans-Serif" font-size="10.00" fill="#000000">If target is LOST at any</text>
<text text-anchor="start" x="701.384" y="-327" font-family="Helvetica,sans-Serif" font-size="10.00" fill="#000000">point in VisualServoStateMachine</text>
</g>
<!-- i_note_tr_VisualServoStateMachine_APPROACH_7&#45;&gt;note_tr_VisualServoStateMachine_APPROACH_7 -->
<g id="edge11" class="edge">
<title>i_note_tr_VisualServoStateMachine_APPROACH_7&#45;&gt;note_tr_VisualServoStateMachine_APPROACH_7</title>
<path fill="none" stroke="#000000" stroke-dasharray="5,2" d="M699.1803,-387.9623C700.5738,-387.0212 727.7856,-368.6445 749.457,-354.0092"/>
</g>
</g>
</svg>
